<svg width="565" height="565" viewBox="0 0 565 565" fill="none" xmlns="http://www.w3.org/2000/svg">
<path d="M130.694 177.013H81.4325L0 0H49.2616L130.694 177.013Z" fill="white"/>
<path d="M135.025 182.402H82.6646L173.105 378.15H225.465L135.025 182.402Z" fill="white"/>
<path d="M315.906 186.85L492.027 565H439.666L263.546 186.85H315.906Z" fill="white"/>
<path d="M287.346 249.134L230.225 378.15L206.425 324.764L258.785 186.85L287.346 249.134Z" fill="white"/>
<path d="M377.786 441.756V542.756L330.186 449.331V338.11L377.786 441.756Z" fill="white"/>
<path d="M377.786 311.417V177.953H330.186V209.094L377.786 311.417Z" fill="white"/>
<path d="M445.999 391.496C434.092 391.496 422.593 389.862 411.745 386.819L380.737 320.163C394.663 340.025 418.69 353.144 445.996 353.144C489.055 353.144 523.962 320.52 523.962 280.276C523.962 240.031 489.055 207.407 445.996 207.407C416.29 207.407 390.465 222.934 377.304 245.778L377.786 195.335C398.416 177.953 411.527 169.055 445.999 169.055C511.722 169.055 565 218.85 565 280.276C565 341.701 511.722 391.496 445.999 391.496Z" fill="white"/>
</svg>
